<svg width="512" height="512" viewBox="0 0 512 512" fill="none" xmlns="http://www.w3.org/2000/svg">
<g clip-path="url(#clip0_181_268)">
<rect x="101" y="128" width="334" height="273" fill="white"/>
<path d="M256 0C114.615 0 0 114.615 0 256C0 397.385 114.615 512 256 512C397.385 512 512 397.385 512 256C512 114.615 397.385 0 256 0ZM392.363 342.9H359.878C356.36 342.904 352.886 342.115 349.714 340.591C346.543 339.068 343.756 336.849 341.56 334.1C331.818 321.869 312.626 300.182 292.475 290.867C291.308 290.321 290.022 290.077 288.736 290.16C287.45 290.242 286.205 290.647 285.117 291.337C284.029 292.028 283.133 292.982 282.511 294.11C281.889 295.239 281.562 296.506 281.559 297.795V329.923C281.559 331.627 281.224 333.314 280.572 334.889C279.92 336.463 278.965 337.894 277.76 339.099C276.555 340.304 275.125 341.26 273.551 341.912C271.976 342.564 270.289 342.9 268.585 342.9H253.564C234.03 342.9 191.964 331.009 158.445 282.181C129.885 240.581 117.154 208.341 109.73 182.201C109.298 180.669 109.228 179.058 109.524 177.494C109.819 175.93 110.474 174.456 111.435 173.187C112.396 171.918 113.639 170.89 115.064 170.182C116.49 169.474 118.06 169.107 119.652 169.108H152.514C155.793 169.105 158.984 170.161 161.615 172.118C164.245 174.074 166.174 176.828 167.114 179.969C173.225 200.408 189.053 244.499 217.031 266.455C217.884 267.127 218.909 267.546 219.989 267.664C221.069 267.781 222.16 267.592 223.138 267.118C224.115 266.645 224.94 265.906 225.517 264.985C226.094 264.065 226.401 263.001 226.402 261.915V210.449C226.402 200.278 221.994 190.102 215.114 182.149C214.123 181.008 213.48 179.607 213.263 178.111C213.047 176.615 213.265 175.089 213.891 173.714C214.518 172.339 215.527 171.173 216.798 170.355C218.069 169.538 219.549 169.103 221.06 169.103H271.726C274.335 169.103 276.837 170.139 278.682 171.984C280.527 173.829 281.564 176.331 281.564 178.94V248.265C281.564 249.269 281.84 250.253 282.363 251.11C282.885 251.967 283.633 252.663 284.525 253.124C285.417 253.584 286.418 253.79 287.419 253.719C288.42 253.648 289.382 253.302 290.2 252.721C299.5 246.101 307.465 236.321 314.791 225.328C324.011 211.5 335.262 188.642 340.906 176.779C341.999 174.481 343.72 172.54 345.872 171.18C348.023 169.821 350.515 169.1 353.06 169.1H388.9C390.397 169.099 391.869 169.481 393.176 170.209C394.484 170.936 395.584 171.986 396.373 173.258C397.161 174.53 397.612 175.982 397.682 177.477C397.752 178.972 397.439 180.46 396.773 181.8C387.729 199.94 370.114 233.218 353.538 252.742C351.165 255.55 350.004 259.184 350.308 262.848C350.612 266.511 352.358 269.904 355.161 272.282C365.966 281.514 382.834 298.582 401.02 327.011C402.023 328.567 402.589 330.365 402.657 332.215C402.725 334.065 402.294 335.899 401.408 337.525C400.522 339.151 399.215 340.508 397.623 341.454C396.032 342.4 394.214 342.899 392.363 342.9Z" fill="url(#paint0_linear_181_268)"/>
</g>
<defs>
<linearGradient id="paint0_linear_181_268" x1="3.71901" y1="508.281" x2="470.868" y2="41.132" gradientUnits="userSpaceOnUse">
<stop stop-color="#025BC7"/>
<stop offset="1" stop-color="#0089FD"/>
</linearGradient>
<clipPath id="clip0_181_268">
<rect width="512" height="512" fill="white"/>
</clipPath>
</defs>
</svg>
